<svg width="32" height="32" viewBox="0 0 32 32" fill="none" xmlns="http://www.w3.org/2000/svg">
  <!-- Background circle -->
  <circle cx="16" cy="16" r="16" fill="#000000"/>
  
  <!-- Milk bottle body -->
  <path d="M12 26h8c1 0 2-1 2-2V12c0-1-1-2-2-2h-1V8c0-1-1-2-2-2h-2c-1 0-2 1-2 2v2h-1c-1 0-2 1-2 2v12c0 1 1 2 2 2z" fill="#ffffff"/>
  
  <!-- Milk inside bottle -->
  <path d="M13 24h6c0.5 0 1-0.5 1-1V14h-8v9c0 0.5 0.5 1 1 1z" fill="#f0f0f0"/>
  
  <!-- Bottle cap -->
  <rect x="14" y="6" width="4" height="4" rx="1" fill="#ffffff"/>
  
  <!-- Small highlight -->
  <ellipse cx="14.5" cy="16" rx="1" ry="3" fill="#ffffff" opacity="0.3"/>
</svg>
